<svg width="304" height="70" viewBox="0 0 304 70" fill="none" xmlns="http://www.w3.org/2000/svg">
<g filter="url(#filter0_d_178_386)">
<path d="M20.72 58.52L20.2174 59.3845L20.2217 59.387L20.72 58.52ZM10.32 47.88L9.43416 48.344L9.43647 48.3484L10.32 47.88ZM10.32 18.12L11.2058 18.584L10.32 18.12ZM20.72 7.48L21.2151 8.34887L21.2183 8.34701L20.72 7.48ZM54.72 7.48L54.2173 8.34459L54.2293 8.35131L54.72 7.48ZM65.2 18.12L66.0858 17.656L65.2 18.12ZM65.2 47.88L66.0835 48.3484L66.0858 48.344L65.2 47.88ZM54.72 58.52L54.2217 57.653L54.2174 57.6555L54.72 58.52ZM46.64 57.4L46.9643 58.3459L46.9821 58.3399L46.9996 58.3331L46.64 57.4ZM56.72 46.2L57.6801 46.4797L57.6825 46.4715L56.72 46.2ZM55.12 26.68L56.0632 26.3477L56.06 26.3386L56.0566 26.3296L55.12 26.68ZM43.68 10.36L44.2237 9.52066L44.2169 9.51634L43.68 10.36ZM28.8 8.6L28.4685 7.65654L28.4544 7.66151L28.4404 7.6669L28.8 8.6ZM18.72 19.8L17.7599 19.5204L17.7594 19.5219L18.72 19.8ZM20.32 39.32L19.3756 39.6489L19.38 39.6615L19.3848 39.674L20.32 39.32ZM31.68 55.32L31.121 56.1492L31.1253 56.1521L31.68 55.32ZM37.76 61.52C31.1708 61.52 25.6725 60.2129 21.2183 57.653L20.2217 59.387C25.0475 62.1604 30.9092 63.52 37.76 63.52V61.52ZM21.2226 57.6555C16.7875 55.0769 13.4575 51.6634 11.2035 47.4116L9.43647 48.3484C11.8759 52.9499 15.4792 56.6297 20.2174 59.3845L21.2226 57.6555ZM11.2058 47.416C8.93977 43.0899 7.8 38.2909 7.8 33H5.8C5.8 38.5891 7.0069 43.7101 9.43417 48.344L11.2058 47.416ZM7.8 33C7.8 27.7091 8.93977 22.9101 11.2058 18.584L9.43417 17.656C7.0069 22.2899 5.8 27.4109 5.8 33H7.8ZM11.2058 18.584C13.4597 14.2812 16.787 10.8718 21.2151 8.34886L20.2249 6.61113C15.4796 9.31487 11.8737 12.9988 9.43417 17.656L11.2058 18.584ZM21.2183 8.34701C25.6725 5.78709 31.1708 4.48 37.76 4.48V2.48C30.9092 2.48 25.0475 3.83957 20.2217 6.61298L21.2183 8.34701ZM37.76 4.48C44.3498 4.48 49.819 5.78729 54.2174 8.34451L55.2226 6.61549C50.4477 3.83938 44.6102 2.48 37.76 2.48V4.48ZM54.2293 8.35131C58.7104 10.8751 62.062 14.2844 64.3142 18.584L66.0858 17.656C63.6447 12.9956 60.0096 9.31152 55.2107 6.60869L54.2293 8.35131ZM64.3142 18.584C66.5802 22.9101 67.72 27.7091 67.72 33H69.72C69.72 27.4109 68.5131 22.2899 66.0858 17.656L64.3142 18.584ZM67.72 33C67.72 38.2909 66.5802 43.0899 64.3142 47.416L66.0858 48.344C68.5131 43.7101 69.72 38.5891 69.72 33H67.72ZM64.3165 47.4116C62.0642 51.6603 58.7099 55.0736 54.2217 57.653L55.2183 59.387C60.0101 56.6331 63.6425 52.953 66.0835 48.3484L64.3165 47.4116ZM54.2174 57.6555C49.819 60.2127 44.3498 61.52 37.76 61.52V63.52C44.6102 63.52 50.4477 62.1606 55.2226 59.3845L54.2174 57.6555ZM41.04 59.36C43.0232 59.36 44.9993 59.0197 46.9643 58.3459L46.3157 56.4541C44.5474 57.0603 42.7901 57.36 41.04 57.36V59.36ZM46.9996 58.3331C52.425 56.2421 55.9972 52.2576 57.6801 46.4796L55.7599 45.9204C54.2428 51.1291 51.095 54.6113 46.2804 56.4669L46.9996 58.3331ZM57.6825 46.4715C58.2961 44.2959 58.6 41.9906 58.6 39.56H56.6C56.6 41.8227 56.3173 43.9441 55.7576 45.9285L57.6825 46.4715ZM58.6 39.56C58.6 35.527 57.7442 31.1196 56.0632 26.3477L54.1768 27.0123C55.8025 31.6271 56.6 35.8063 56.6 39.56H58.6ZM56.0566 26.3296C53.0836 18.3835 49.1666 12.7224 44.2236 9.52069L43.1364 11.1993C47.58 14.0776 51.2898 19.2965 54.1834 27.0304L56.0566 26.3296ZM44.2169 9.51634C41.1436 7.56061 37.9464 6.56 34.64 6.56V8.56C37.5202 8.56 40.3497 9.42605 43.1431 11.2037L44.2169 9.51634ZM34.64 6.56C32.5974 6.56 30.5389 6.92912 28.4685 7.65654L29.1315 9.54346C31.0078 8.8842 32.8426 8.56 34.64 8.56V6.56ZM28.4404 7.6669C23.015 9.75793 19.4428 13.7424 17.7599 19.5204L19.6801 20.0796C21.1972 14.8709 24.345 11.3887 29.1596 9.53309L28.4404 7.6669ZM17.7594 19.5219C17.1439 21.6485 16.84 23.9297 16.84 26.36H18.84C18.84 24.097 19.1228 22.0049 19.6806 20.0781L17.7594 19.5219ZM16.84 26.36C16.84 30.3925 17.6956 34.8257 19.3756 39.6489L21.2644 38.9911C19.6377 34.321 18.84 30.1141 18.84 26.36H16.84ZM19.3848 39.674C22.2566 47.2601 26.1471 52.796 31.121 56.1492L32.239 54.4908C27.7196 51.444 24.0367 46.3133 21.2552 38.9659L19.3848 39.674ZM31.1253 56.1521C34.3056 58.2722 37.6156 59.36 41.04 59.36V57.36C38.0644 57.36 35.1344 56.4211 32.2347 54.4879L31.1253 56.1521ZM167.147 61V62H169.21L167.932 60.3804L167.147 61ZM147.947 61L147.162 60.3804L145.883 62H147.947V61ZM150.187 56.68L149.258 56.3086L149.254 56.3202L149.249 56.3318L150.187 56.68ZM151.307 34.04H152.307V33.04H151.307V34.04ZM118.347 34.04V33.04H117.347V34.04H118.347ZM119.387 56.68L118.449 57.0282L118.454 57.0398L118.458 57.0514L119.387 56.68ZM121.707 61V62H123.77L122.492 60.3804L121.707 61ZM102.507 61L101.702 60.4068L100.528 62H102.507V61ZM104.747 56.68L105.675 57.0514L104.747 56.68ZM103.387 6.28L104.227 5.73747L104.219 5.72536L104.211 5.71347L103.387 6.28ZM102.507 5V4H100.606L101.683 5.56652L102.507 5ZM121.707 5L122.531 5.56652L123.608 4H121.707V5ZM120.827 6.28L120.003 5.71347L119.99 5.73147L119.979 5.75L120.827 6.28ZM119.147 10.28L118.195 9.97218L118.191 9.98495L118.188 9.99783L119.147 10.28ZM118.347 30.44H117.347V31.44H118.347V30.44ZM151.307 30.44V31.44H152.307V30.44H151.307ZM150.427 10.28L149.468 10.5622L149.471 10.575L149.475 10.5878L150.427 10.28ZM148.827 6.28L149.675 5.75L149.663 5.73147L149.651 5.71347L148.827 6.28ZM147.947 5V4H146.046L147.123 5.56653L147.947 5ZM167.147 5L167.971 5.56652L169.048 4H167.147V5ZM166.267 6.28L165.443 5.71347L165.435 5.72536L165.427 5.73747L166.267 6.28ZM164.827 56.68L163.889 57.0282L163.894 57.0398L163.898 57.0514L164.827 56.68ZM167.147 60H147.947V62H167.147V60ZM148.732 61.6196C149.622 60.4925 150.412 58.9457 151.124 57.0282L149.249 56.3318C148.575 58.1476 147.872 59.4808 147.162 60.3804L148.732 61.6196ZM151.115 57.0514C151.932 55.0095 152.307 52.1662 152.307 48.6H150.307C150.307 52.0738 149.935 54.6172 149.258 56.3086L151.115 57.0514ZM152.307 48.6V34.04H150.307V48.6H152.307ZM151.307 33.04H118.347V35.04H151.307V33.04ZM117.347 34.04V48.6H119.347V34.04H117.347ZM117.347 48.6C117.347 52.1621 117.695 54.9956 118.449 57.0282L120.324 56.3318C119.693 54.631 119.347 52.0779 119.347 48.6H117.347ZM118.458 57.0514C119.223 58.9635 120.039 60.5012 120.922 61.6196L122.492 60.3804C121.775 59.4722 121.044 58.1298 120.315 56.3086L118.458 57.0514ZM121.707 60H102.507V62H121.707V60ZM103.312 61.5932C104.13 60.4833 104.914 58.956 105.675 57.0514L103.818 56.3086C103.087 58.1373 102.377 59.49 101.702 60.4068L103.312 61.5932ZM105.675 57.0514C106.492 55.0095 106.867 52.1662 106.867 48.6H104.867C104.867 52.0738 104.495 54.6172 103.818 56.3086L105.675 57.0514ZM106.867 48.6V17.4H104.867V48.6H106.867ZM106.867 17.4C106.867 12.4583 106.03 8.52871 104.227 5.73747L102.547 6.82252C104.051 9.15129 104.867 12.635 104.867 17.4H106.867ZM104.211 5.71347L103.331 4.43347L101.683 5.56652L102.563 6.84653L104.211 5.71347ZM102.507 6H121.707V4H102.507V6ZM120.883 4.43347L120.003 5.71347L121.651 6.84653L122.531 5.56652L120.883 4.43347ZM119.979 5.75C119.379 6.70959 118.789 8.13706 118.195 9.97218L120.098 10.5878C120.678 8.79627 121.208 7.55708 121.675 6.81L119.979 5.75ZM118.188 9.99783C117.617 11.9387 117.347 14.4176 117.347 17.4H119.347C119.347 14.5157 119.61 12.248 120.106 10.5622L118.188 9.99783ZM117.347 17.4V30.44H119.347V17.4H117.347ZM118.347 31.44H151.307V29.44H118.347V31.44ZM152.307 30.44V17.4H150.307V30.44H152.307ZM152.307 17.4C152.307 14.4121 152.01 11.9234 151.378 9.97218L149.475 10.5878C150.018 12.2633 150.307 14.5212 150.307 17.4H152.307ZM151.386 9.99783C150.846 8.15942 150.282 6.72093 149.675 5.75L147.979 6.81C148.439 7.54573 148.942 8.77391 149.468 10.5622L151.386 9.99783ZM149.651 5.71347L148.771 4.43347L147.123 5.56653L148.003 6.84653L149.651 5.71347ZM147.947 6H167.147V4H147.947V6ZM166.323 4.43347L165.443 5.71347L167.091 6.84653L167.971 5.56652L166.323 4.43347ZM165.427 5.73747C163.624 8.52871 162.787 12.4583 162.787 17.4H164.787C164.787 12.635 165.603 9.15129 167.107 6.82253L165.427 5.73747ZM162.787 17.4V48.6H164.787V17.4H162.787ZM162.787 48.6C162.787 52.1621 163.135 54.9956 163.889 57.0282L165.764 56.3318C165.133 54.631 164.787 52.0779 164.787 48.6H162.787ZM163.898 57.0514C164.663 58.9635 165.479 60.5012 166.362 61.6196L167.932 60.3804C167.215 59.4722 166.484 58.1298 165.755 56.3086L163.898 57.0514ZM237.454 61V62H239.575L238.225 60.3636L237.454 61ZM217.054 61L216.059 61.0974L216.147 62H217.054V61ZM213.454 46.76L214.376 46.3739L214.119 45.76H213.454V46.76ZM184.014 46.76V45.76H183.377L183.108 46.3371L184.014 46.76ZM182.894 49.16L183.797 49.5899L183.8 49.5829L182.894 49.16ZM180.494 61V62H181.494V61H180.494ZM170.094 61L169.356 60.325L167.823 62H170.094V61ZM181.454 44.28L182.353 44.7178L182.355 44.7133L181.454 44.28ZM193.454 19.32L194.355 19.7533L194.36 19.7436L194.364 19.7338L193.454 19.32ZM193.374 5V4H191.804L192.468 5.42288L193.374 5ZM207.214 5L208.114 4.56513L207.841 4H207.214V5ZM224.174 40.12L225.077 39.6908L225.074 39.6851L224.174 40.12ZM211.854 43.24V44.24H213.446L212.754 42.8056L211.854 43.24ZM198.814 16.2L199.714 15.7656L198.816 13.9036L197.914 15.7635L198.814 16.2ZM185.694 43.24L184.794 42.8035L184.097 44.24H185.694V43.24ZM237.454 60H217.054V62H237.454V60ZM218.049 60.9026C217.559 55.8958 216.334 51.0518 214.376 46.3739L212.531 47.1461C214.413 51.6415 215.588 56.2909 216.059 61.0974L218.049 60.9026ZM213.454 45.76H184.014V47.76H213.454V45.76ZM183.108 46.3371L181.988 48.7371L183.8 49.5829L184.92 47.1829L183.108 46.3371ZM181.991 48.7301C180.328 52.2228 179.494 55.8895 179.494 59.72H181.494C181.494 56.1905 182.26 52.8172 183.797 49.5899L181.991 48.7301ZM179.494 59.72V61H181.494V59.72H179.494ZM180.494 60H170.094V62H180.494V60ZM170.832 61.675C175.483 56.5905 179.324 50.9372 182.353 44.7178L180.555 43.8422C177.61 49.8895 173.877 55.3828 169.356 60.325L170.832 61.675ZM182.355 44.7133L194.355 19.7533L192.553 18.8867L180.553 43.8467L182.355 44.7133ZM194.364 19.7338C195.485 17.267 196.054 14.7531 196.054 12.2H194.054C194.054 14.4469 193.555 16.6797 192.543 18.9062L194.364 19.7338ZM196.054 12.2C196.054 9.63933 195.455 7.09568 194.28 4.57711L192.468 5.42288C193.532 7.70431 194.054 9.96066 194.054 12.2H196.054ZM193.374 6H207.214V4H193.374V6ZM206.313 5.43486L223.273 40.5549L225.074 39.6851L208.114 4.56513L206.313 5.43486ZM223.271 40.5492C226.879 48.1431 231.35 55.1728 236.682 61.6364L238.225 60.3636C232.998 54.0272 228.615 47.1369 225.077 39.6908L223.271 40.5492ZM212.754 42.8056L199.714 15.7656L197.913 16.6344L210.953 43.6744L212.754 42.8056ZM197.914 15.7635L184.794 42.8035L186.593 43.6765L199.713 16.6365L197.914 15.7635ZM185.694 44.24H211.854V42.24H185.694V44.24ZM254.474 58.52L253.967 59.3819L253.971 59.3845L254.474 58.52ZM243.994 47.8L243.114 48.276L243.117 48.2803L243.994 47.8ZM243.994 18.04L243.124 17.5472L243.119 17.5553L243.994 18.04ZM254.634 7.48L255.129 8.34889L255.136 8.34451L254.634 7.48ZM288.394 7.32L287.954 8.21807L287.957 8.21981L288.394 7.32ZM299.434 17.88L300.362 17.5086L300.352 17.4835L300.341 17.4589L299.434 17.88ZM298.714 23.64L297.866 23.11L297.86 23.1201L298.714 23.64ZM287.434 25.48L286.461 25.2484L286.168 26.48H287.434V25.48ZM285.194 14.68L284.362 15.2347L284.366 15.2406L284.37 15.2465L285.194 14.68ZM277.194 8.52L277.586 7.60015L277.583 7.59875L277.194 8.52ZM265.914 7.4L265.71 6.42102L265.689 6.42536L265.668 6.43058L265.914 7.4ZM256.554 13.96L257.403 14.4888L257.406 14.4826L256.554 13.96ZM252.954 25L251.958 24.9095L251.958 24.9134L252.954 25ZM257.594 46.92L258.463 46.4252L258.46 46.4203L257.594 46.92ZM285.274 56.44L285.721 57.3345L285.728 57.3309L285.274 56.44ZM297.594 47L296.859 46.3217L296.852 46.3295L296.845 46.3374L297.594 47ZM299.754 44.52L300.689 44.8752L298.896 44.0055L299.754 44.52ZM289.114 57.56L289.66 58.3975L289.666 58.3934L289.114 57.56ZM270.874 61.52C264.669 61.52 259.383 60.2174 254.976 57.6555L253.971 59.3845C258.738 62.1559 264.385 63.52 270.874 63.52V61.52ZM254.981 57.6581C250.598 55.08 247.235 51.6366 244.871 47.3197L243.117 48.2803C245.659 52.9234 249.283 56.6266 253.967 59.3819L254.981 57.6581ZM244.873 47.3241C242.503 42.945 241.314 38.1233 241.314 32.84H239.314C239.314 38.4367 240.577 43.5883 243.114 48.2759L244.873 47.3241ZM241.314 32.84C241.314 27.5565 242.503 22.792 244.868 18.5247L243.119 17.5553C240.577 22.1413 239.314 27.2435 239.314 32.84H241.314ZM244.864 18.5327C247.278 14.2691 250.693 10.8765 255.129 8.34886L254.139 6.61113C249.402 9.31021 245.723 12.9576 243.124 17.5473L244.864 18.5327ZM255.136 8.34451C259.543 5.78255 264.829 4.48 271.034 4.48V2.48C264.545 2.48 258.898 3.84411 254.131 6.61549L255.136 8.34451ZM271.034 4.48C277.242 4.48 282.876 5.73104 287.954 8.21806L288.834 6.42194C283.458 3.78896 277.519 2.48 271.034 2.48V4.48ZM287.957 8.21981C293.071 10.699 296.561 14.0678 298.527 18.3011L300.341 17.4589C298.146 12.7322 294.277 9.06103 288.83 6.42019L287.957 8.21981ZM298.505 18.2514C298.785 18.9512 298.914 19.5986 298.914 20.2H300.914C300.914 19.3081 300.722 18.4088 300.362 17.5086L298.505 18.2514ZM298.914 20.2C298.914 20.9555 298.612 21.9162 297.866 23.11L299.562 24.17C300.416 22.8038 300.914 21.4712 300.914 20.2H298.914ZM297.86 23.1201C297.354 23.9507 296.417 24.48 294.714 24.48V26.48C296.85 26.48 298.58 25.7827 299.568 24.1599L297.86 23.1201ZM294.714 24.48H287.434V26.48H294.714V24.48ZM288.407 25.7116C288.69 24.5217 288.834 23.3506 288.834 22.2H286.834C286.834 23.1828 286.711 24.1983 286.461 25.2484L288.407 25.7116ZM288.834 22.2C288.834 19.4964 287.862 16.7957 286.018 14.1135L284.37 15.2465C286.046 17.6843 286.834 19.9969 286.834 22.2H288.834ZM286.026 14.1253C284.185 11.3634 281.342 9.20185 277.586 7.60015L276.801 9.43984C280.299 10.9315 282.79 12.8765 284.362 15.2347L286.026 14.1253ZM277.583 7.59875C275.062 6.53438 272.45 6 269.754 6V8C272.178 8 274.526 8.47895 276.805 9.44125L277.583 7.59875ZM269.754 6C268.404 6 267.055 6.14068 265.71 6.42102L266.118 8.37898C267.332 8.12599 268.544 8 269.754 8V6ZM265.668 6.43058C261.235 7.55287 257.881 9.88071 255.701 13.4374L257.406 14.4826C259.28 11.426 262.166 9.38046 266.159 8.36942L265.668 6.43058ZM255.705 13.4313C253.59 16.8271 252.344 20.6593 251.958 24.9095L253.95 25.0905C254.31 21.1274 255.465 17.5996 257.403 14.4887L255.705 13.4313ZM251.958 24.9134C251.848 26.1674 251.794 27.3964 251.794 28.6H253.794C253.794 27.457 253.846 26.2859 253.95 25.0866L251.958 24.9134ZM251.794 28.6C251.794 35.4346 253.436 41.7147 256.728 47.4197L258.46 46.4203C255.351 41.0319 253.794 35.0988 253.794 28.6H251.794ZM256.725 47.4148C261.265 55.3884 267.987 59.44 276.794 59.44V57.44C268.748 57.44 262.669 53.8116 258.463 46.4252L256.725 47.4148ZM276.794 59.44C279.935 59.44 282.915 58.7373 285.721 57.3344L284.827 55.5456C282.299 56.8093 279.625 57.44 276.794 57.44V59.44ZM285.728 57.3309C288.506 55.9145 290.995 54.3022 293.19 52.4914L291.917 50.9486C289.846 52.6578 287.481 54.1921 284.82 55.5491L285.728 57.3309ZM293.19 52.4914C295.346 50.7127 297.069 49.1024 298.343 47.6626L296.845 46.3374C295.665 47.6709 294.028 49.2073 291.917 50.9486L293.19 52.4914ZM298.329 47.6783C298.971 46.9821 299.479 46.4207 299.848 45.9968C300.191 45.6027 300.477 45.2589 300.611 45.0345L298.896 44.0055C298.899 44.0002 298.891 44.0137 298.863 44.0526C298.836 44.0888 298.799 44.1367 298.75 44.198C298.651 44.3206 298.515 44.4816 298.34 44.6832C297.989 45.086 297.496 45.6312 296.859 46.3217L298.329 47.6783ZM298.819 44.1648C296.872 49.2896 293.466 53.4741 288.561 56.7266L289.666 58.3934C294.895 54.9259 298.583 50.4171 300.689 44.8752L298.819 44.1648ZM288.567 56.7226C283.689 59.9059 277.807 61.52 270.874 61.52V63.52C278.127 63.52 284.405 61.8274 289.66 58.3974L288.567 56.7226Z" fill="#EB063B"/>
</g>
<defs>
<filter id="filter0_d_178_386" x="0.799988" y="0.47998" width="303.114" height="69.04" filterUnits="userSpaceOnUse" color-interpolation-filters="sRGB">
<feFlood flood-opacity="0" result="BackgroundImageFix"/>
<feColorMatrix in="SourceAlpha" type="matrix" values="0 0 0 0 0 0 0 0 0 0 0 0 0 0 0 0 0 0 127 0" result="hardAlpha"/>
<feOffset dx="-1" dy="2"/>
<feGaussianBlur stdDeviation="2.5"/>
<feComposite in2="hardAlpha" operator="out"/>
<feColorMatrix type="matrix" values="0 0 0 0 0.933333 0 0 0 0 0.0196078 0 0 0 0 0.235294 0 0 0 1 0"/>
<feBlend mode="normal" in2="BackgroundImageFix" result="effect1_dropShadow_178_386"/>
<feBlend mode="normal" in="SourceGraphic" in2="effect1_dropShadow_178_386" result="shape"/>
</filter>
</defs>
</svg>
