<svg width="22" height="22" viewBox="0 0 22 22" fill="none" xmlns="http://www.w3.org/2000/svg">
<path d="M17.1508 7.52603C17.0656 7.44011 16.9642 7.37192 16.8525 7.32538C16.7408 7.27884 16.621 7.25488 16.5 7.25488C16.379 7.25488 16.2591 7.27884 16.1474 7.32538C16.0357 7.37192 15.9344 7.44011 15.8491 7.52603L11.6508 11.7244C11.5656 11.8103 11.4642 11.8785 11.3525 11.925C11.2408 11.9716 11.121 11.9955 11 11.9955C10.879 11.9955 10.7591 11.9716 10.6474 11.925C10.5357 11.8785 10.4344 11.8103 10.3491 11.7244L6.15081 7.52603C6.06559 7.44011 5.96421 7.37192 5.8525 7.32538C5.7408 7.27884 5.62098 7.25488 5.49997 7.25488C5.37896 7.25488 5.25915 7.27884 5.14744 7.32538C5.03574 7.37192 4.93436 7.44011 4.84914 7.52603C4.67841 7.69778 4.58258 7.93011 4.58258 8.17228C4.58258 8.41445 4.67841 8.64678 4.84914 8.81853L9.05664 13.026C9.57227 13.541 10.2712 13.8303 11 13.8303C11.7287 13.8303 12.4277 13.541 12.9433 13.026L17.1508 8.81853C17.3215 8.64678 17.4174 8.41445 17.4174 8.17228C17.4174 7.93011 17.3215 7.69778 17.1508 7.52603V7.52603Z" fill="white"/>
</svg>
